<?xml version="1.0" encoding="UTF-8" standalone="no"?>
<!DOCTYPE svg PUBLIC "-//W3C//DTD SVG 1.1//EN"
 "http://www.w3.org/Graphics/SVG/1.1/DTD/svg11.dtd">
<!-- Generated by graphviz version 5.0.0 (20220707.1540)
 -->
<!-- Title: dependencies Pages: 1 -->
<svg width="292pt" height="174pt"
 viewBox="0.00 0.00 292.00 173.80" xmlns="http://www.w3.org/2000/svg" xmlns:xlink="http://www.w3.org/1999/xlink">
<g id="graph0" class="graph" transform="scale(1 1) rotate(0) translate(4 169.8)">
<title>dependencies</title>
<polygon fill="white" stroke="transparent" points="-4,4 -4,-169.8 288,-169.8 288,4 -4,4"/>
<text text-anchor="middle" x="142" y="-8.2" font-family="sans-serif" font-size="14.00">dependencies</text>
<g id="clust1" class="cluster">
<title>cluster_CartModule</title>
<polygon fill="none" stroke="black" stroke-dasharray="1,5" points="8,-32.8 8,-157.8 276,-157.8 276,-32.8 8,-32.8"/>
</g>
<g id="clust6" class="cluster">
<title>cluster_CartModule_providers</title>
<polygon fill="none" stroke="black" points="138,-40.8 138,-92.8 268,-92.8 268,-40.8 138,-40.8"/>
</g>
<g id="clust3" class="cluster">
<title>cluster_CartModule_imports</title>
<polygon fill="none" stroke="black" points="16,-40.8 16,-92.8 130,-92.8 130,-40.8 16,-40.8"/>
</g>
<!-- PrismaModule -->
<g id="node1" class="node">
<title>PrismaModule</title>
<polygon fill="#8dd3c7" stroke="black" points="122.44,-84.8 119.44,-88.8 98.44,-88.8 95.44,-84.8 23.56,-84.8 23.56,-48.8 122.44,-48.8 122.44,-84.8"/>
<text text-anchor="middle" x="73" y="-62.6" font-family="Times,serif" font-size="14.00">PrismaModule</text>
</g>
<!-- CartModule -->
<g id="node2" class="node">
<title>CartModule</title>
<polygon fill="#8dd3c7" stroke="black" points="179.66,-149.8 176.66,-153.8 155.66,-153.8 152.66,-149.8 96.34,-149.8 96.34,-113.8 179.66,-113.8 179.66,-149.8"/>
<text text-anchor="middle" x="138" y="-127.6" font-family="Times,serif" font-size="14.00">CartModule</text>
</g>
<!-- PrismaModule&#45;&gt;CartModule -->
<g id="edge1" class="edge">
<title>PrismaModule&#45;&gt;CartModule</title>
<path fill="none" stroke="black" d="M109.2,-84.91C109.2,-84.91 109.2,-103.79 109.2,-103.79"/>
<polygon fill="black" stroke="black" points="105.7,-103.79 109.2,-113.79 112.7,-103.79 105.7,-103.79"/>
</g>
<!-- CartService -->
<g id="node3" class="node">
<title>CartService</title>
<ellipse fill="#fdb462" stroke="black" cx="203" cy="-66.8" rx="56.74" ry="18"/>
<text text-anchor="middle" x="203" y="-62.6" font-family="Times,serif" font-size="14.00">CartService</text>
</g>
<!-- CartService&#45;&gt;CartModule -->
<g id="edge2" class="edge">
<title>CartService&#45;&gt;CartModule</title>
<path fill="none" stroke="black" d="M163.1,-79.64C163.1,-79.64 163.1,-103.32 163.1,-103.32"/>
<polygon fill="black" stroke="black" points="159.6,-103.32 163.1,-113.32 166.6,-103.32 159.6,-103.32"/>
</g>
</g>
</svg>
