<?xml version="1.0" encoding="UTF-8" standalone="no"?>
<!DOCTYPE svg PUBLIC "-//W3C//DTD SVG 1.1//EN"
 "http://www.w3.org/Graphics/SVG/1.1/DTD/svg11.dtd">
<!-- Generated by graphviz version 5.0.0 (20220707.1540)
 -->
<!-- Title: dependencies Pages: 1 -->
<svg width="854pt" height="174pt"
 viewBox="0.00 0.00 854.00 173.80" xmlns="http://www.w3.org/2000/svg" xmlns:xlink="http://www.w3.org/1999/xlink">
<g id="graph0" class="graph" transform="scale(1 1) rotate(0) translate(4 169.8)">
<title>dependencies</title>
<polygon fill="white" stroke="transparent" points="-4,4 -4,-169.8 850,-169.8 850,4 -4,4"/>
<text text-anchor="middle" x="423" y="-8.2" font-family="sans-serif" font-size="14.00">dependencies</text>
<g id="clust1" class="cluster">
<title>cluster_AppModule</title>
<polygon fill="none" stroke="black" stroke-dasharray="1,5" points="8,-32.8 8,-157.8 838,-157.8 838,-32.8 8,-32.8"/>
</g>
<g id="clust6" class="cluster">
<title>cluster_AppModule_providers</title>
<polygon fill="none" stroke="black" points="700,-40.8 700,-92.8 830,-92.8 830,-40.8 700,-40.8"/>
</g>
<g id="clust3" class="cluster">
<title>cluster_AppModule_imports</title>
<polygon fill="none" stroke="black" points="16,-40.8 16,-92.8 692,-92.8 692,-40.8 16,-40.8"/>
</g>
<!-- AuthModule -->
<g id="node1" class="node">
<title>AuthModule</title>
<polygon fill="#8dd3c7" stroke="black" points="683.55,-84.8 680.55,-88.8 659.55,-88.8 656.55,-84.8 596.45,-84.8 596.45,-48.8 683.55,-48.8 683.55,-84.8"/>
<text text-anchor="middle" x="640" y="-62.6" font-family="Times,serif" font-size="14.00">AuthModule</text>
</g>
<!-- AppModule -->
<g id="node7" class="node">
<title>AppModule</title>
<polygon fill="#8dd3c7" stroke="black" points="468.66,-149.8 465.66,-153.8 444.66,-153.8 441.66,-149.8 385.34,-149.8 385.34,-113.8 468.66,-113.8 468.66,-149.8"/>
<text text-anchor="middle" x="427" y="-127.6" font-family="Times,serif" font-size="14.00">AppModule</text>
</g>
<!-- AuthModule&#45;&gt;AppModule -->
<g id="edge1" class="edge">
<title>AuthModule&#45;&gt;AppModule</title>
<path fill="none" stroke="black" d="M640,-84.91C640,-104.14 640,-131.8 640,-131.8 640,-131.8 478.83,-131.8 478.83,-131.8"/>
<polygon fill="black" stroke="black" points="478.83,-128.3 468.83,-131.8 478.83,-135.3 478.83,-128.3"/>
</g>
<!-- CartModule -->
<g id="node2" class="node">
<title>CartModule</title>
<polygon fill="#8dd3c7" stroke="black" points="577.66,-84.8 574.66,-88.8 553.66,-88.8 550.66,-84.8 494.34,-84.8 494.34,-48.8 577.66,-48.8 577.66,-84.8"/>
<text text-anchor="middle" x="536" y="-62.6" font-family="Times,serif" font-size="14.00">CartModule</text>
</g>
<!-- CartModule&#45;&gt;AppModule -->
<g id="edge2" class="edge">
<title>CartModule&#45;&gt;AppModule</title>
<path fill="none" stroke="black" d="M536,-84.83C536,-101.2 536,-122.8 536,-122.8 536,-122.8 478.83,-122.8 478.83,-122.8"/>
<polygon fill="black" stroke="black" points="478.83,-119.3 468.83,-122.8 478.83,-126.3 478.83,-119.3"/>
</g>
<!-- PrismaModule -->
<g id="node3" class="node">
<title>PrismaModule</title>
<polygon fill="#8dd3c7" stroke="black" points="476.44,-84.8 473.44,-88.8 452.44,-88.8 449.44,-84.8 377.56,-84.8 377.56,-48.8 476.44,-48.8 476.44,-84.8"/>
<text text-anchor="middle" x="427" y="-62.6" font-family="Times,serif" font-size="14.00">PrismaModule</text>
</g>
<!-- PrismaModule&#45;&gt;AppModule -->
<g id="edge3" class="edge">
<title>PrismaModule&#45;&gt;AppModule</title>
<path fill="none" stroke="black" d="M427,-84.91C427,-84.91 427,-103.79 427,-103.79"/>
<polygon fill="black" stroke="black" points="423.5,-103.79 427,-113.79 430.5,-103.79 423.5,-103.79"/>
</g>
<!-- ProductModule -->
<g id="node4" class="node">
<title>ProductModule</title>
<polygon fill="#8dd3c7" stroke="black" points="359.6,-84.8 356.6,-88.8 335.6,-88.8 332.6,-84.8 256.4,-84.8 256.4,-48.8 359.6,-48.8 359.6,-84.8"/>
<text text-anchor="middle" x="308" y="-62.6" font-family="Times,serif" font-size="14.00">ProductModule</text>
</g>
<!-- ProductModule&#45;&gt;AppModule -->
<g id="edge4" class="edge">
<title>ProductModule&#45;&gt;AppModule</title>
<path fill="none" stroke="black" d="M308,-84.83C308,-101.2 308,-122.8 308,-122.8 308,-122.8 375.05,-122.8 375.05,-122.8"/>
<polygon fill="black" stroke="black" points="375.05,-126.3 385.05,-122.8 375.05,-119.3 375.05,-126.3"/>
</g>
<!-- PurchaseModule -->
<g id="node5" class="node">
<title>PurchaseModule</title>
<polygon fill="#8dd3c7" stroke="black" points="238.09,-84.8 235.09,-88.8 214.09,-88.8 211.09,-84.8 127.91,-84.8 127.91,-48.8 238.09,-48.8 238.09,-84.8"/>
<text text-anchor="middle" x="183" y="-62.6" font-family="Times,serif" font-size="14.00">PurchaseModule</text>
</g>
<!-- PurchaseModule&#45;&gt;AppModule -->
<g id="edge5" class="edge">
<title>PurchaseModule&#45;&gt;AppModule</title>
<path fill="none" stroke="black" d="M183,-84.91C183,-104.14 183,-131.8 183,-131.8 183,-131.8 375.33,-131.8 375.33,-131.8"/>
<polygon fill="black" stroke="black" points="375.33,-135.3 385.33,-131.8 375.33,-128.3 375.33,-135.3"/>
</g>
<!-- UserModule -->
<g id="node6" class="node">
<title>UserModule</title>
<polygon fill="#8dd3c7" stroke="black" points="109.99,-84.8 106.99,-88.8 85.99,-88.8 82.99,-84.8 24.01,-84.8 24.01,-48.8 109.99,-48.8 109.99,-84.8"/>
<text text-anchor="middle" x="67" y="-62.6" font-family="Times,serif" font-size="14.00">UserModule</text>
</g>
<!-- UserModule&#45;&gt;AppModule -->
<g id="edge6" class="edge">
<title>UserModule&#45;&gt;AppModule</title>
<path fill="none" stroke="black" d="M67,-85.09C67,-107.01 67,-140.8 67,-140.8 67,-140.8 375,-140.8 375,-140.8"/>
<polygon fill="black" stroke="black" points="375,-144.3 385,-140.8 375,-137.3 375,-144.3"/>
</g>
<!-- AppService -->
<g id="node8" class="node">
<title>AppService</title>
<ellipse fill="#fdb462" stroke="black" cx="765" cy="-66.8" rx="56.75" ry="18"/>
<text text-anchor="middle" x="765" y="-62.6" font-family="Times,serif" font-size="14.00">AppService</text>
</g>
<!-- AppService&#45;&gt;AppModule -->
<g id="edge7" class="edge">
<title>AppService&#45;&gt;AppModule</title>
<path fill="none" stroke="black" d="M765,-85.09C765,-107.01 765,-140.8 765,-140.8 765,-140.8 478.78,-140.8 478.78,-140.8"/>
<polygon fill="black" stroke="black" points="478.78,-137.3 468.78,-140.8 478.78,-144.3 478.78,-137.3"/>
</g>
</g>
</svg>
